<mxfile host="34b9f12f-aae8-4de5-9f22-ce5ab060a49a" modified="2020-07-26T04:33:11.105Z" agent="5.0 (Windows NT 10.0; Win64; x64) AppleWebKit/537.36 (KHTML, like Gecko) Code/1.47.2 Chrome/78.0.3904.130 Electron/7.3.2 Safari/537.36" etag="nbYYoSn7psuxcRYTKMab" version="13.1.3" pages="4">
    <diagram id="i1Ip0cVt2Nu_jXzInDw8" name="第 2 页">
        <mxGraphModel dx="456" dy="274" grid="0" gridSize="10" guides="1" tooltips="1" connect="1" arrows="1" fold="1" page="1" pageScale="1" pageWidth="827" pageHeight="1169" math="0" shadow="0">
            <root>
                <mxCell id="X2E32Z82g6LhZekRWMDY-0"/>
                <mxCell id="X2E32Z82g6LhZekRWMDY-1" parent="X2E32Z82g6LhZekRWMDY-0"/>
                <mxCell id="AIloPWkikIAkswtYoViR-8" value="&lt;p style=&quot;margin: 0px ; margin-top: 4px ; text-align: center&quot;&gt;&lt;font style=&quot;font-size: 8px ; line-height: 90%&quot; face=&quot;Times New Roman&quot;&gt;&lt;i&gt;&amp;lt;&amp;lt;&amp;nbsp; &amp;nbsp;Interface&amp;nbsp; &amp;gt;&amp;gt;&lt;/i&gt;&lt;br&gt;&lt;span&gt;abstruct Product A&lt;/span&gt;&lt;/font&gt;&lt;/p&gt;&lt;hr size=&quot;1&quot;&gt;&lt;p style=&quot;margin: 0px ; margin-left: 4px&quot;&gt;&lt;span style=&quot;font-size: 8px ; font-family: &amp;#34;times new roman&amp;#34;&quot;&gt;+ method1(Type): Type&lt;/span&gt;&lt;br&gt;&lt;/p&gt;&lt;p style=&quot;margin: 0px ; margin-left: 4px&quot;&gt;&lt;font face=&quot;Times New Roman&quot; style=&quot;font-size: 8px&quot;&gt;&lt;br&gt;&lt;/font&gt;&lt;/p&gt;" style="verticalAlign=top;align=left;overflow=fill;fontSize=12;fontFamily=Helvetica;html=1;fontStyle=1" vertex="1" parent="X2E32Z82g6LhZekRWMDY-1">
                    <mxGeometry x="149" y="66" width="97" height="66" as="geometry"/>
                </mxCell>
                <mxCell id="AIloPWkikIAkswtYoViR-10" value="&lt;p style=&quot;margin: 0px ; margin-top: 4px ; text-align: center&quot;&gt;&lt;font style=&quot;font-size: 8px ; line-height: 90%&quot; face=&quot;Times New Roman&quot;&gt;&lt;i&gt;&amp;lt;&amp;lt;&amp;nbsp; struct&amp;nbsp; &amp;gt;&amp;gt;&lt;/i&gt;&lt;br&gt;&lt;b&gt;Product A1&lt;/b&gt;&lt;/font&gt;&lt;/p&gt;&lt;hr size=&quot;1&quot;&gt;&lt;p style=&quot;margin: 0px ; margin-left: 4px&quot;&gt;&lt;span style=&quot;font-size: 8px ; font-family: &amp;#34;times new roman&amp;#34;&quot;&gt;+ method1(Type): Type&lt;/span&gt;&lt;br&gt;&lt;/p&gt;&lt;p style=&quot;margin: 0px ; margin-left: 4px&quot;&gt;&lt;font face=&quot;Times New Roman&quot; style=&quot;font-size: 8px&quot;&gt;&lt;br&gt;&lt;/font&gt;&lt;/p&gt;" style="verticalAlign=top;align=left;overflow=fill;fontSize=12;fontFamily=Helvetica;html=1;" vertex="1" parent="X2E32Z82g6LhZekRWMDY-1">
                    <mxGeometry x="63" y="196" width="97" height="66" as="geometry"/>
                </mxCell>
                <mxCell id="AIloPWkikIAkswtYoViR-12" value="&lt;p style=&quot;margin: 0px ; margin-top: 4px ; text-align: center&quot;&gt;&lt;font style=&quot;font-size: 8px ; line-height: 90%&quot; face=&quot;Times New Roman&quot;&gt;&lt;i&gt;&amp;lt;&amp;lt;&amp;nbsp; struct&amp;nbsp; &amp;gt;&amp;gt;&lt;/i&gt;&lt;br&gt;&lt;b&gt;Product A2&lt;/b&gt;&lt;/font&gt;&lt;/p&gt;&lt;hr size=&quot;1&quot;&gt;&lt;p style=&quot;margin: 0px ; margin-left: 4px&quot;&gt;&lt;span style=&quot;font-size: 8px ; font-family: &amp;#34;times new roman&amp;#34;&quot;&gt;+ method1(Type): Type&lt;/span&gt;&lt;br&gt;&lt;/p&gt;&lt;p style=&quot;margin: 0px ; margin-left: 4px&quot;&gt;&lt;font face=&quot;Times New Roman&quot; style=&quot;font-size: 8px&quot;&gt;&lt;br&gt;&lt;/font&gt;&lt;/p&gt;" style="verticalAlign=top;align=left;overflow=fill;fontSize=12;fontFamily=Helvetica;html=1;" vertex="1" parent="X2E32Z82g6LhZekRWMDY-1">
                    <mxGeometry x="238" y="192" width="97" height="66" as="geometry"/>
                </mxCell>
                <mxCell id="AIloPWkikIAkswtYoViR-13" value="&lt;p style=&quot;margin: 0px ; margin-top: 4px ; text-align: center&quot;&gt;&lt;font style=&quot;font-size: 8px ; line-height: 90%&quot; face=&quot;Times New Roman&quot;&gt;&lt;i&gt;&amp;lt;&amp;lt;&amp;nbsp; &amp;nbsp;Interface&amp;nbsp; &amp;gt;&amp;gt;&lt;/i&gt;&lt;br&gt;&lt;span&gt;abstruct Product B&lt;/span&gt;&lt;/font&gt;&lt;/p&gt;&lt;hr size=&quot;1&quot;&gt;&lt;p style=&quot;margin: 0px ; margin-left: 4px&quot;&gt;&lt;span style=&quot;font-size: 8px ; font-family: &amp;#34;times new roman&amp;#34;&quot;&gt;+ method (Type): Type&lt;/span&gt;&lt;br&gt;&lt;/p&gt;&lt;p style=&quot;margin: 0px ; margin-left: 4px&quot;&gt;&lt;font face=&quot;Times New Roman&quot; style=&quot;font-size: 8px&quot;&gt;&lt;br&gt;&lt;/font&gt;&lt;/p&gt;" style="verticalAlign=top;align=left;overflow=fill;fontSize=12;fontFamily=Helvetica;html=1;fontStyle=1" vertex="1" parent="X2E32Z82g6LhZekRWMDY-1">
                    <mxGeometry x="494" y="66" width="97" height="66" as="geometry"/>
                </mxCell>
                <mxCell id="AIloPWkikIAkswtYoViR-14" value="&lt;pre style=&quot;margin: 0px ; margin-top: 4px ; text-align: center&quot;&gt;&lt;font style=&quot;font-size: 8px ; line-height: 90%&quot; face=&quot;Times New Roman&quot;&gt;&amp;lt;&amp;lt;&amp;nbsp; struct&amp;nbsp; &amp;gt;&amp;gt;&lt;br&gt;&lt;/font&gt;&lt;font style=&quot;font-size: 8px ; line-height: 90%&quot; face=&quot;Times New Roman&quot;&gt;&lt;b&gt;Product B1&lt;/b&gt;&lt;/font&gt;&lt;/pre&gt;&lt;hr size=&quot;1&quot;&gt;&lt;p style=&quot;margin: 0px ; margin-left: 4px&quot;&gt;&lt;span style=&quot;font-size: 8px ; font-family: &amp;#34;times new roman&amp;#34;&quot;&gt;+ method (Type): Type&lt;/span&gt;&lt;br&gt;&lt;/p&gt;&lt;p style=&quot;margin: 0px ; margin-left: 4px&quot;&gt;&lt;font face=&quot;Times New Roman&quot; style=&quot;font-size: 8px&quot;&gt;&lt;br&gt;&lt;/font&gt;&lt;/p&gt;" style="verticalAlign=top;align=left;overflow=fill;fontSize=12;fontFamily=Helvetica;html=1;spacing=0;" vertex="1" parent="X2E32Z82g6LhZekRWMDY-1">
                    <mxGeometry x="405" y="197" width="97" height="65" as="geometry"/>
                </mxCell>
                <mxCell id="AIloPWkikIAkswtYoViR-15" value="&lt;p style=&quot;margin: 0px ; margin-top: 4px ; text-align: center&quot;&gt;&lt;font style=&quot;font-size: 8px ; line-height: 90%&quot; face=&quot;Times New Roman&quot;&gt;&lt;i&gt;&amp;lt;&amp;lt;&amp;nbsp; struct&amp;nbsp; &amp;gt;&amp;gt;&lt;/i&gt;&lt;br&gt;&lt;b&gt;Product B2&lt;/b&gt;&lt;/font&gt;&lt;/p&gt;&lt;hr size=&quot;1&quot;&gt;&lt;p style=&quot;margin: 0px ; margin-left: 4px&quot;&gt;&lt;span style=&quot;font-size: 8px ; font-family: &amp;#34;times new roman&amp;#34;&quot;&gt;+ method (Type): Type&lt;/span&gt;&lt;br&gt;&lt;/p&gt;&lt;p style=&quot;margin: 0px ; margin-left: 4px&quot;&gt;&lt;font face=&quot;Times New Roman&quot; style=&quot;font-size: 8px&quot;&gt;&lt;br&gt;&lt;/font&gt;&lt;/p&gt;" style="verticalAlign=top;align=left;overflow=fill;fontSize=12;fontFamily=Helvetica;html=1;" vertex="1" parent="X2E32Z82g6LhZekRWMDY-1">
                    <mxGeometry x="572" y="196" width="97" height="66" as="geometry"/>
                </mxCell>
                <mxCell id="AIloPWkikIAkswtYoViR-17" value="&lt;font style=&quot;font-size: 6px&quot;&gt;实现&lt;/font&gt;" style="text;html=1;align=center;verticalAlign=middle;resizable=0;points=[];autosize=1;" vertex="1" parent="X2E32Z82g6LhZekRWMDY-1">
                    <mxGeometry x="115" y="150" width="22" height="20" as="geometry"/>
                </mxCell>
                <mxCell id="AIloPWkikIAkswtYoViR-20" value="&lt;p style=&quot;margin: 0px ; margin-top: 4px ; text-align: center&quot;&gt;&lt;font style=&quot;font-size: 8px ; line-height: 90%&quot; face=&quot;Times New Roman&quot;&gt;&lt;i&gt;&amp;lt;&amp;lt;&amp;nbsp; struct&amp;nbsp; &amp;gt;&amp;gt;&lt;/i&gt;&lt;br&gt;&lt;b&gt;Factory&lt;/b&gt;&lt;/font&gt;&lt;/p&gt;&lt;hr size=&quot;1&quot;&gt;&lt;p style=&quot;margin: 0px ; margin-left: 4px&quot;&gt;&lt;span style=&quot;font-size: 8px ; font-family: &amp;#34;times new roman&amp;#34;&quot;&gt;+ method (Type): Type&lt;/span&gt;&lt;br&gt;&lt;/p&gt;&lt;p style=&quot;margin: 0px ; margin-left: 4px&quot;&gt;&lt;font face=&quot;Times New Roman&quot; style=&quot;font-size: 8px&quot;&gt;&lt;br&gt;&lt;/font&gt;&lt;/p&gt;" style="verticalAlign=top;align=left;overflow=fill;fontSize=12;fontFamily=Helvetica;html=1;" vertex="1" parent="X2E32Z82g6LhZekRWMDY-1">
                    <mxGeometry x="425" y="321" width="97" height="66" as="geometry"/>
                </mxCell>
                <mxCell id="AIloPWkikIAkswtYoViR-23" value="" style="endArrow=block;dashed=1;endFill=0;endSize=12;html=1;" edge="1" parent="X2E32Z82g6LhZekRWMDY-1">
                    <mxGeometry width="160" relative="1" as="geometry">
                        <mxPoint x="110" y="192" as="sourcePoint"/>
                        <mxPoint x="184.5" y="137" as="targetPoint"/>
                    </mxGeometry>
                </mxCell>
                <mxCell id="AIloPWkikIAkswtYoViR-24" value="" style="endArrow=block;dashed=1;endFill=0;endSize=12;html=1;exitX=0.506;exitY=-0.04;exitDx=0;exitDy=0;exitPerimeter=0;" edge="1" parent="X2E32Z82g6LhZekRWMDY-1" source="AIloPWkikIAkswtYoViR-12">
                    <mxGeometry width="160" relative="1" as="geometry">
                        <mxPoint x="160.25000000000006" y="196" as="sourcePoint"/>
                        <mxPoint x="216" y="141" as="targetPoint"/>
                    </mxGeometry>
                </mxCell>
                <mxCell id="AIloPWkikIAkswtYoViR-25" value="&lt;font style=&quot;font-size: 6px&quot;&gt;实现&lt;/font&gt;" style="text;html=1;align=center;verticalAlign=middle;resizable=0;points=[];autosize=1;" vertex="1" parent="X2E32Z82g6LhZekRWMDY-1">
                    <mxGeometry x="260" y="150" width="22" height="20" as="geometry"/>
                </mxCell>
                <mxCell id="AIloPWkikIAkswtYoViR-26" value="&lt;font style=&quot;font-size: 6px&quot;&gt;实现&lt;/font&gt;" style="text;html=1;align=center;verticalAlign=middle;resizable=0;points=[];autosize=1;" vertex="1" parent="X2E32Z82g6LhZekRWMDY-1">
                    <mxGeometry x="447" y="148" width="22" height="20" as="geometry"/>
                </mxCell>
                <mxCell id="AIloPWkikIAkswtYoViR-27" value="" style="endArrow=block;dashed=1;endFill=0;endSize=12;html=1;" edge="1" parent="X2E32Z82g6LhZekRWMDY-1">
                    <mxGeometry width="160" relative="1" as="geometry">
                        <mxPoint x="450.50000000000006" y="192" as="sourcePoint"/>
                        <mxPoint x="525" y="137" as="targetPoint"/>
                    </mxGeometry>
                </mxCell>
                <mxCell id="AIloPWkikIAkswtYoViR-28" value="" style="endArrow=block;dashed=1;endFill=0;endSize=12;html=1;exitX=0.506;exitY=-0.04;exitDx=0;exitDy=0;exitPerimeter=0;" edge="1" parent="X2E32Z82g6LhZekRWMDY-1">
                    <mxGeometry width="160" relative="1" as="geometry">
                        <mxPoint x="627.582" y="189.36" as="sourcePoint"/>
                        <mxPoint x="556.5" y="141" as="targetPoint"/>
                    </mxGeometry>
                </mxCell>
                <mxCell id="AIloPWkikIAkswtYoViR-29" value="&lt;font style=&quot;font-size: 6px&quot;&gt;实现&lt;/font&gt;" style="text;html=1;align=center;verticalAlign=middle;resizable=0;points=[];autosize=1;" vertex="1" parent="X2E32Z82g6LhZekRWMDY-1">
                    <mxGeometry x="608.5" y="148" width="22" height="20" as="geometry"/>
                </mxCell>
                <mxCell id="AIloPWkikIAkswtYoViR-30" value="" style="endArrow=block;dashed=1;endFill=0;endSize=12;html=1;" edge="1" parent="X2E32Z82g6LhZekRWMDY-1">
                    <mxGeometry width="160" relative="1" as="geometry">
                        <mxPoint x="463" y="393" as="sourcePoint"/>
                        <mxPoint x="364" y="462" as="targetPoint"/>
                    </mxGeometry>
                </mxCell>
                <mxCell id="AIloPWkikIAkswtYoViR-31" value="" style="endArrow=block;dashed=1;endFill=0;endSize=12;html=1;" edge="1" parent="X2E32Z82g6LhZekRWMDY-1">
                    <mxGeometry width="160" relative="1" as="geometry">
                        <mxPoint x="229" y="406.9999999999999" as="sourcePoint"/>
                        <mxPoint x="354" y="462" as="targetPoint"/>
                    </mxGeometry>
                </mxCell>
                <mxCell id="AIloPWkikIAkswtYoViR-32" value="实现" style="text;html=1;align=center;verticalAlign=middle;resizable=0;points=[];autosize=1;" vertex="1" parent="X2E32Z82g6LhZekRWMDY-1">
                    <mxGeometry x="241" y="430" width="34" height="18" as="geometry"/>
                </mxCell>
                <mxCell id="AIloPWkikIAkswtYoViR-33" value="实现" style="text;html=1;align=center;verticalAlign=middle;resizable=0;points=[];autosize=1;" vertex="1" parent="X2E32Z82g6LhZekRWMDY-1">
                    <mxGeometry x="430" y="422" width="34" height="18" as="geometry"/>
                </mxCell>
                <mxCell id="AIloPWkikIAkswtYoViR-19" value="&lt;p style=&quot;margin: 0px ; margin-top: 4px ; text-align: center&quot;&gt;&lt;font style=&quot;font-size: 8px ; line-height: 90%&quot; face=&quot;Times New Roman&quot;&gt;&lt;i&gt;&amp;lt;&amp;lt;&amp;nbsp; struct&amp;nbsp; &amp;gt;&amp;gt;&lt;/i&gt;&lt;br&gt;&lt;b&gt;Factory&lt;/b&gt;&lt;/font&gt;&lt;/p&gt;&lt;hr size=&quot;1&quot;&gt;&lt;p style=&quot;margin: 0px ; margin-left: 4px&quot;&gt;&lt;span style=&quot;font-size: 8px ; font-family: &amp;#34;times new roman&amp;#34;&quot;&gt;+ method1(Type): Type&lt;/span&gt;&lt;br&gt;&lt;/p&gt;&lt;p style=&quot;margin: 0px ; margin-left: 4px&quot;&gt;&lt;font face=&quot;Times New Roman&quot; style=&quot;font-size: 8px&quot;&gt;&lt;br&gt;&lt;/font&gt;&lt;/p&gt;" style="verticalAlign=top;align=left;overflow=fill;fontSize=12;fontFamily=Helvetica;html=1;" vertex="1" parent="X2E32Z82g6LhZekRWMDY-1">
                    <mxGeometry x="171" y="324" width="97" height="66" as="geometry"/>
                </mxCell>
                <mxCell id="AIloPWkikIAkswtYoViR-36" value="" style="endArrow=open;endFill=1;endSize=12;html=1;dashed=1;" edge="1" parent="X2E32Z82g6LhZekRWMDY-1">
                    <mxGeometry width="160" relative="1" as="geometry">
                        <mxPoint x="210" y="318" as="sourcePoint"/>
                        <mxPoint x="134.5" y="273" as="targetPoint"/>
                    </mxGeometry>
                </mxCell>
                <mxCell id="AIloPWkikIAkswtYoViR-37" value="" style="endArrow=open;endFill=1;endSize=12;html=1;dashed=1;" edge="1" parent="X2E32Z82g6LhZekRWMDY-1">
                    <mxGeometry width="160" relative="1" as="geometry">
                        <mxPoint x="231" y="317" as="sourcePoint"/>
                        <mxPoint x="397" y="260" as="targetPoint"/>
                    </mxGeometry>
                </mxCell>
                <mxCell id="AIloPWkikIAkswtYoViR-38" value="" style="endArrow=open;endFill=1;endSize=12;html=1;dashed=1;strokeColor=#66CC00;" edge="1" parent="X2E32Z82g6LhZekRWMDY-1">
                    <mxGeometry width="160" relative="1" as="geometry">
                        <mxPoint x="455" y="317" as="sourcePoint"/>
                        <mxPoint x="296" y="267" as="targetPoint"/>
                    </mxGeometry>
                </mxCell>
                <mxCell id="AIloPWkikIAkswtYoViR-39" value="" style="endArrow=open;endFill=1;endSize=12;html=1;dashed=1;strokeColor=#66CC00;" edge="1" parent="X2E32Z82g6LhZekRWMDY-1">
                    <mxGeometry width="160" relative="1" as="geometry">
                        <mxPoint x="485" y="317" as="sourcePoint"/>
                        <mxPoint x="598" y="265" as="targetPoint"/>
                    </mxGeometry>
                </mxCell>
                <mxCell id="hU36JUNyYR5RkvmSx7tW-0" value="&lt;font style=&quot;font-size: 6px ; line-height: 60%&quot;&gt;依赖 / 使用&lt;br&gt;product&lt;/font&gt;" style="text;html=1;align=center;verticalAlign=middle;resizable=0;points=[];autosize=1;spacing=-6;horizontal=1;" vertex="1" parent="X2E32Z82g6LhZekRWMDY-1">
                    <mxGeometry x="134.5" y="293" width="27" height="20" as="geometry"/>
                </mxCell>
                <mxCell id="hU36JUNyYR5RkvmSx7tW-1" value="&amp;nbsp; &amp;nbsp; &amp;nbsp;&amp;nbsp;" style="text;html=1;align=center;verticalAlign=middle;resizable=0;points=[];autosize=1;" vertex="1" parent="X2E32Z82g6LhZekRWMDY-1">
                    <mxGeometry x="230" y="191" width="30" height="18" as="geometry"/>
                </mxCell>
                <mxCell id="hU36JUNyYR5RkvmSx7tW-2" value="&lt;font style=&quot;font-size: 6px ; line-height: 60%&quot;&gt;依赖 / 使用&lt;br&gt;product&lt;/font&gt;" style="text;html=1;align=center;verticalAlign=middle;resizable=0;points=[];autosize=1;spacing=-6;horizontal=1;" vertex="1" parent="X2E32Z82g6LhZekRWMDY-1">
                    <mxGeometry x="290" y="297" width="27" height="20" as="geometry"/>
                </mxCell>
                <mxCell id="hU36JUNyYR5RkvmSx7tW-3" value="&lt;font style=&quot;font-size: 6px ; line-height: 60%&quot;&gt;依赖 / 使用&lt;br&gt;product&lt;/font&gt;" style="text;html=1;align=center;verticalAlign=middle;resizable=0;points=[];autosize=1;spacing=-6;horizontal=1;" vertex="1" parent="X2E32Z82g6LhZekRWMDY-1">
                    <mxGeometry x="363" y="297" width="27" height="20" as="geometry"/>
                </mxCell>
                <mxCell id="hU36JUNyYR5RkvmSx7tW-4" value="&lt;font style=&quot;font-size: 6px ; line-height: 60%&quot;&gt;依赖 / 使用&lt;br&gt;product&lt;/font&gt;" style="text;html=1;align=center;verticalAlign=middle;resizable=0;points=[];autosize=1;spacing=-6;horizontal=1;" vertex="1" parent="X2E32Z82g6LhZekRWMDY-1">
                    <mxGeometry x="539" y="293" width="27" height="20" as="geometry"/>
                </mxCell>
                <mxCell id="hU36JUNyYR5RkvmSx7tW-11" value="&lt;&lt;  interface  &gt;&gt;&#10;abstruct factory" style="swimlane;fontStyle=1;align=center;verticalAlign=top;childLayout=stackLayout;horizontal=1;startSize=37;horizontalStack=0;resizeParent=1;resizeParentMax=0;resizeLast=0;collapsible=1;marginBottom=0;fontSize=12;" vertex="1" parent="X2E32Z82g6LhZekRWMDY-1">
                    <mxGeometry x="278" y="462" width="143" height="67" as="geometry"/>
                </mxCell>
                <mxCell id="hU36JUNyYR5RkvmSx7tW-12" value="" style="line;strokeWidth=1;fillColor=none;align=left;verticalAlign=middle;spacingTop=-1;spacingLeft=3;spacingRight=3;rotatable=0;labelPosition=right;points=[];portConstraint=eastwest;" vertex="1" parent="hU36JUNyYR5RkvmSx7tW-11">
                    <mxGeometry y="37" width="143" height="8" as="geometry"/>
                </mxCell>
                <mxCell id="hU36JUNyYR5RkvmSx7tW-13" value="+call()" style="text;strokeColor=none;fillColor=none;align=left;verticalAlign=top;spacingLeft=4;spacingRight=4;overflow=hidden;rotatable=0;points=[[0,0.5],[1,0.5]];portConstraint=eastwest;fontSize=12;" vertex="1" parent="hU36JUNyYR5RkvmSx7tW-11">
                    <mxGeometry y="45" width="143" height="22" as="geometry"/>
                </mxCell>
            </root>
        </mxGraphModel>
    </diagram>
    <diagram id="Yg3FmZo6PRHqpuTQheP4" name="第 3 页">
        <mxGraphModel dx="550" dy="331" grid="0" gridSize="10" guides="1" tooltips="1" connect="1" arrows="1" fold="1" page="1" pageScale="1" pageWidth="827" pageHeight="1169" background="#808080" math="0" shadow="0">
            <root>
                <mxCell id="CdARvjgwzrO6Aa3djIan-0"/>
                <mxCell id="CdARvjgwzrO6Aa3djIan-1" parent="CdARvjgwzrO6Aa3djIan-0"/>
                <mxCell id="CdARvjgwzrO6Aa3djIan-8" value="&lt;span&gt;interface&lt;/span&gt;&lt;br&gt;&lt;span&gt;abstruct product A&lt;/span&gt;" style="rounded=1;whiteSpace=wrap;html=1;fontSize=12;" vertex="1" parent="CdARvjgwzrO6Aa3djIan-1">
                    <mxGeometry x="117" y="36" width="120" height="41.5" as="geometry"/>
                </mxCell>
                <mxCell id="CdARvjgwzrO6Aa3djIan-9" value="&lt;span&gt;interface&lt;/span&gt;&lt;br&gt;&lt;span&gt;abstruct product B&lt;/span&gt;" style="rounded=1;whiteSpace=wrap;html=1;fontSize=12;" vertex="1" parent="CdARvjgwzrO6Aa3djIan-1">
                    <mxGeometry x="330" y="42" width="120" height="38.5" as="geometry"/>
                </mxCell>
                <mxCell id="CdARvjgwzrO6Aa3djIan-10" value="struct&lt;br&gt;product A1" style="rounded=1;whiteSpace=wrap;html=1;fontSize=12;" vertex="1" parent="CdARvjgwzrO6Aa3djIan-1">
                    <mxGeometry x="63" y="126" width="93" height="37.5" as="geometry"/>
                </mxCell>
                <mxCell id="CdARvjgwzrO6Aa3djIan-12" value="struct&lt;br&gt;product A2" style="rounded=1;whiteSpace=wrap;html=1;fontSize=12;" vertex="1" parent="CdARvjgwzrO6Aa3djIan-1">
                    <mxGeometry x="171" y="129" width="93" height="37.5" as="geometry"/>
                </mxCell>
                <mxCell id="CdARvjgwzrO6Aa3djIan-13" value="struct&lt;br&gt;product B2" style="rounded=1;whiteSpace=wrap;html=1;fontSize=12;" vertex="1" parent="CdARvjgwzrO6Aa3djIan-1">
                    <mxGeometry x="405" y="134" width="93" height="38.5" as="geometry"/>
                </mxCell>
                <mxCell id="CdARvjgwzrO6Aa3djIan-14" value="struct&lt;br&gt;product B1" style="rounded=1;whiteSpace=wrap;html=1;fontSize=12;" vertex="1" parent="CdARvjgwzrO6Aa3djIan-1">
                    <mxGeometry x="289" y="129" width="93" height="38.5" as="geometry"/>
                </mxCell>
                <mxCell id="CdARvjgwzrO6Aa3djIan-15" value="struct&lt;br&gt;factory 1" style="rounded=1;whiteSpace=wrap;html=1;fontSize=12;" vertex="1" parent="CdARvjgwzrO6Aa3djIan-1">
                    <mxGeometry x="138" y="217" width="93" height="37.5" as="geometry"/>
                </mxCell>
                <mxCell id="CdARvjgwzrO6Aa3djIan-18" value="&lt;span&gt;interface&lt;/span&gt;&lt;br&gt;&lt;span&gt;abstruct factory&lt;/span&gt;" style="rounded=1;whiteSpace=wrap;html=1;fontSize=12;" vertex="1" parent="CdARvjgwzrO6Aa3djIan-1">
                    <mxGeometry x="216" y="304" width="120" height="38.5" as="geometry"/>
                </mxCell>
                <mxCell id="CdARvjgwzrO6Aa3djIan-19" value="struct&lt;br&gt;factory 2" style="rounded=1;whiteSpace=wrap;html=1;fontSize=12;" vertex="1" parent="CdARvjgwzrO6Aa3djIan-1">
                    <mxGeometry x="321" y="222" width="93" height="32.5" as="geometry"/>
                </mxCell>
                <mxCell id="CdARvjgwzrO6Aa3djIan-20" value="" style="endArrow=block;dashed=1;endFill=0;endSize=12;html=1;strokeColor=#FFFF66;fontSize=12;strokeWidth=2;" edge="1" parent="CdARvjgwzrO6Aa3djIan-1">
                    <mxGeometry width="160" relative="1" as="geometry">
                        <mxPoint x="108" y="126" as="sourcePoint"/>
                        <mxPoint x="158" y="83" as="targetPoint"/>
                    </mxGeometry>
                </mxCell>
                <mxCell id="CdARvjgwzrO6Aa3djIan-21" value="" style="endArrow=block;dashed=1;endFill=0;endSize=12;html=1;strokeColor=#FFFF66;fontSize=12;strokeWidth=2;" edge="1" parent="CdARvjgwzrO6Aa3djIan-1">
                    <mxGeometry width="160" relative="1" as="geometry">
                        <mxPoint x="326" y="129" as="sourcePoint"/>
                        <mxPoint x="376" y="86" as="targetPoint"/>
                    </mxGeometry>
                </mxCell>
                <mxCell id="CdARvjgwzrO6Aa3djIan-22" value="" style="endArrow=block;dashed=1;endFill=0;endSize=12;html=1;strokeColor=#FFFF66;fontSize=12;strokeWidth=2;" edge="1" parent="CdARvjgwzrO6Aa3djIan-1">
                    <mxGeometry width="160" relative="1" as="geometry">
                        <mxPoint x="222" y="129" as="sourcePoint"/>
                        <mxPoint x="188" y="83" as="targetPoint"/>
                    </mxGeometry>
                </mxCell>
                <mxCell id="CdARvjgwzrO6Aa3djIan-23" value="" style="endArrow=block;dashed=1;endFill=0;endSize=12;html=1;strokeColor=#FFFF66;fontSize=12;strokeWidth=2;" edge="1" parent="CdARvjgwzrO6Aa3djIan-1">
                    <mxGeometry width="160" relative="1" as="geometry">
                        <mxPoint x="444" y="132" as="sourcePoint"/>
                        <mxPoint x="410" y="85" as="targetPoint"/>
                    </mxGeometry>
                </mxCell>
                <mxCell id="CdARvjgwzrO6Aa3djIan-24" value="" style="endArrow=block;dashed=1;endFill=0;endSize=12;html=1;strokeColor=#33FF33;fontSize=12;strokeWidth=2;" edge="1" parent="CdARvjgwzrO6Aa3djIan-1">
                    <mxGeometry width="160" relative="1" as="geometry">
                        <mxPoint x="354" y="259" as="sourcePoint"/>
                        <mxPoint x="298" y="296" as="targetPoint"/>
                    </mxGeometry>
                </mxCell>
                <mxCell id="CdARvjgwzrO6Aa3djIan-25" value="" style="endArrow=block;dashed=1;endFill=0;endSize=12;html=1;strokeColor=#FFFF66;fontSize=12;strokeWidth=2;" edge="1" parent="CdARvjgwzrO6Aa3djIan-1">
                    <mxGeometry width="160" relative="1" as="geometry">
                        <mxPoint x="202" y="258" as="sourcePoint"/>
                        <mxPoint x="255" y="298" as="targetPoint"/>
                    </mxGeometry>
                </mxCell>
                <mxCell id="CdARvjgwzrO6Aa3djIan-26" value="" style="endArrow=open;dashed=1;endFill=0;endSize=12;html=1;strokeColor=#FFFF66;fontSize=12;strokeWidth=2;" edge="1" parent="CdARvjgwzrO6Aa3djIan-1">
                    <mxGeometry width="160" relative="1" as="geometry">
                        <mxPoint x="171" y="211" as="sourcePoint"/>
                        <mxPoint x="116" y="173" as="targetPoint"/>
                    </mxGeometry>
                </mxCell>
                <mxCell id="CdARvjgwzrO6Aa3djIan-27" value="" style="endArrow=open;dashed=1;endFill=0;endSize=12;html=1;strokeColor=#FFFF66;fontSize=12;strokeWidth=2;" edge="1" parent="CdARvjgwzrO6Aa3djIan-1">
                    <mxGeometry width="160" relative="1" as="geometry">
                        <mxPoint x="198" y="212" as="sourcePoint"/>
                        <mxPoint x="323" y="173" as="targetPoint"/>
                    </mxGeometry>
                </mxCell>
                <mxCell id="CdARvjgwzrO6Aa3djIan-28" value="" style="endArrow=open;dashed=1;endFill=0;endSize=12;html=1;strokeColor=#33FF33;fontSize=12;strokeWidth=2;" edge="1" parent="CdARvjgwzrO6Aa3djIan-1">
                    <mxGeometry width="160" relative="1" as="geometry">
                        <mxPoint x="371" y="212" as="sourcePoint"/>
                        <mxPoint x="436" y="178" as="targetPoint"/>
                    </mxGeometry>
                </mxCell>
                <mxCell id="CdARvjgwzrO6Aa3djIan-29" value="" style="endArrow=open;dashed=1;endFill=0;endSize=12;html=1;strokeColor=#33FF33;fontSize=12;strokeWidth=2;" edge="1" parent="CdARvjgwzrO6Aa3djIan-1">
                    <mxGeometry width="160" relative="1" as="geometry">
                        <mxPoint x="358" y="215" as="sourcePoint"/>
                        <mxPoint x="223" y="170" as="targetPoint"/>
                    </mxGeometry>
                </mxCell>
                <mxCell id="CdARvjgwzrO6Aa3djIan-32" value="实现" style="text;html=1;strokeColor=none;fillColor=none;align=center;verticalAlign=middle;whiteSpace=wrap;rounded=0;fontSize=12;" vertex="1" parent="CdARvjgwzrO6Aa3djIan-1">
                    <mxGeometry x="89.5" y="94" width="40" height="20" as="geometry"/>
                </mxCell>
                <mxCell id="CdARvjgwzrO6Aa3djIan-33" value="实现" style="text;html=1;strokeColor=none;fillColor=none;align=center;verticalAlign=middle;whiteSpace=wrap;rounded=0;fontSize=12;" vertex="1" parent="CdARvjgwzrO6Aa3djIan-1">
                    <mxGeometry x="209" y="94" width="40" height="20" as="geometry"/>
                </mxCell>
                <mxCell id="CdARvjgwzrO6Aa3djIan-34" value="实现" style="text;html=1;strokeColor=none;fillColor=none;align=center;verticalAlign=middle;whiteSpace=wrap;rounded=0;fontSize=12;" vertex="1" parent="CdARvjgwzrO6Aa3djIan-1">
                    <mxGeometry x="299" y="98" width="40" height="20" as="geometry"/>
                </mxCell>
                <mxCell id="CdARvjgwzrO6Aa3djIan-35" value="实现" style="text;html=1;strokeColor=none;fillColor=none;align=center;verticalAlign=middle;whiteSpace=wrap;rounded=0;fontSize=12;" vertex="1" parent="CdARvjgwzrO6Aa3djIan-1">
                    <mxGeometry x="436" y="98" width="40" height="20" as="geometry"/>
                </mxCell>
                <mxCell id="CdARvjgwzrO6Aa3djIan-37" value="依赖 /使用" style="text;html=1;strokeColor=none;fillColor=none;align=center;verticalAlign=middle;whiteSpace=wrap;rounded=0;fontSize=12;" vertex="1" parent="CdARvjgwzrO6Aa3djIan-1">
                    <mxGeometry x="79.5" y="191" width="60" height="20" as="geometry"/>
                </mxCell>
                <mxCell id="CdARvjgwzrO6Aa3djIan-38" value="依赖 /使用" style="text;html=1;strokeColor=none;fillColor=none;align=center;verticalAlign=middle;whiteSpace=wrap;rounded=0;fontSize=12;" vertex="1" parent="CdARvjgwzrO6Aa3djIan-1">
                    <mxGeometry x="239" y="197" width="60" height="20" as="geometry"/>
                </mxCell>
                <mxCell id="CdARvjgwzrO6Aa3djIan-41" value="依赖 /使用" style="text;html=1;strokeColor=none;fillColor=none;align=center;verticalAlign=middle;whiteSpace=wrap;rounded=0;fontSize=12;" vertex="1" parent="CdARvjgwzrO6Aa3djIan-1">
                    <mxGeometry x="405" y="197" width="60" height="20" as="geometry"/>
                </mxCell>
                <mxCell id="CdARvjgwzrO6Aa3djIan-42" value="依赖 /使用" style="text;html=1;strokeColor=none;fillColor=none;align=center;verticalAlign=middle;whiteSpace=wrap;rounded=0;fontSize=12;" vertex="1" parent="CdARvjgwzrO6Aa3djIan-1">
                    <mxGeometry x="322" y="185" width="60" height="20" as="geometry"/>
                </mxCell>
                <mxCell id="CdARvjgwzrO6Aa3djIan-43" value="实现" style="text;html=1;strokeColor=none;fillColor=none;align=center;verticalAlign=middle;whiteSpace=wrap;rounded=0;fontSize=12;" vertex="1" parent="CdARvjgwzrO6Aa3djIan-1">
                    <mxGeometry x="184" y="269" width="40" height="20" as="geometry"/>
                </mxCell>
                <mxCell id="CdARvjgwzrO6Aa3djIan-44" value="实现" style="text;html=1;strokeColor=none;fillColor=none;align=center;verticalAlign=middle;whiteSpace=wrap;rounded=0;fontSize=12;" vertex="1" parent="CdARvjgwzrO6Aa3djIan-1">
                    <mxGeometry x="332" y="274" width="40" height="20" as="geometry"/>
                </mxCell>
            </root>
        </mxGraphModel>
    </diagram>
    <diagram name="手机图" id="Sfv4dvKp2_uEZos_cNuh">
        <mxGraphModel dx="550" dy="331" grid="0" gridSize="10" guides="1" tooltips="1" connect="1" arrows="1" fold="1" page="1" pageScale="1" pageWidth="827" pageHeight="1169" background="#808080" math="0" shadow="0">
            <root>
                <mxCell id="SYxVl2n8oqA1SxXehVdW-0"/>
                <mxCell id="SYxVl2n8oqA1SxXehVdW-1" parent="SYxVl2n8oqA1SxXehVdW-0"/>
                <mxCell id="SYxVl2n8oqA1SxXehVdW-2" value="&lt;span&gt;interface&lt;/span&gt;&lt;br&gt;&lt;span&gt;Phone&lt;/span&gt;" style="rounded=1;whiteSpace=wrap;html=1;fontSize=12;" vertex="1" parent="SYxVl2n8oqA1SxXehVdW-1">
                    <mxGeometry x="117" y="36" width="120" height="41.5" as="geometry"/>
                </mxCell>
                <mxCell id="SYxVl2n8oqA1SxXehVdW-3" value="&lt;span&gt;interface&lt;/span&gt;&lt;br&gt;&lt;span&gt;Computer&lt;/span&gt;" style="rounded=1;whiteSpace=wrap;html=1;fontSize=12;" vertex="1" parent="SYxVl2n8oqA1SxXehVdW-1">
                    <mxGeometry x="330" y="42" width="120" height="38.5" as="geometry"/>
                </mxCell>
                <mxCell id="SYxVl2n8oqA1SxXehVdW-4" value="struct&lt;br&gt;Xiao Mi Phone" style="rounded=1;whiteSpace=wrap;html=1;fontSize=12;" vertex="1" parent="SYxVl2n8oqA1SxXehVdW-1">
                    <mxGeometry x="63" y="126" width="93" height="37.5" as="geometry"/>
                </mxCell>
                <mxCell id="SYxVl2n8oqA1SxXehVdW-5" value="struct&lt;br&gt;HuaWei Phone&amp;nbsp;" style="rounded=1;whiteSpace=wrap;html=1;fontSize=12;" vertex="1" parent="SYxVl2n8oqA1SxXehVdW-1">
                    <mxGeometry x="171" y="129" width="93" height="37.5" as="geometry"/>
                </mxCell>
                <mxCell id="SYxVl2n8oqA1SxXehVdW-6" value="struct&lt;br&gt;HuaWei Computer" style="rounded=1;whiteSpace=wrap;html=1;fontSize=12;" vertex="1" parent="SYxVl2n8oqA1SxXehVdW-1">
                    <mxGeometry x="401" y="131" width="109" height="36.5" as="geometry"/>
                </mxCell>
                <mxCell id="SYxVl2n8oqA1SxXehVdW-7" value="struct&lt;br&gt;XiaoMi Computer" style="rounded=1;whiteSpace=wrap;html=1;fontSize=12;" vertex="1" parent="SYxVl2n8oqA1SxXehVdW-1">
                    <mxGeometry x="289" y="129" width="102" height="38.5" as="geometry"/>
                </mxCell>
                <mxCell id="SYxVl2n8oqA1SxXehVdW-8" value="struct&lt;br&gt;XiaoMi Factory" style="rounded=1;whiteSpace=wrap;html=1;fontSize=12;" vertex="1" parent="SYxVl2n8oqA1SxXehVdW-1">
                    <mxGeometry x="144" y="217" width="93" height="37.5" as="geometry"/>
                </mxCell>
                <mxCell id="SYxVl2n8oqA1SxXehVdW-9" value="&lt;span&gt;interface&lt;/span&gt;&lt;br&gt;&lt;span&gt;Factory&lt;/span&gt;" style="rounded=1;whiteSpace=wrap;html=1;fontSize=12;" vertex="1" parent="SYxVl2n8oqA1SxXehVdW-1">
                    <mxGeometry x="216" y="304" width="120" height="38.5" as="geometry"/>
                </mxCell>
                <mxCell id="SYxVl2n8oqA1SxXehVdW-10" value="struct&lt;br&gt;HuaWei Factory" style="rounded=1;whiteSpace=wrap;html=1;fontSize=12;" vertex="1" parent="SYxVl2n8oqA1SxXehVdW-1">
                    <mxGeometry x="321" y="222" width="93" height="32.5" as="geometry"/>
                </mxCell>
                <mxCell id="SYxVl2n8oqA1SxXehVdW-11" value="" style="endArrow=block;dashed=1;endFill=0;endSize=12;html=1;strokeColor=#FFFF66;fontSize=12;strokeWidth=2;" edge="1" parent="SYxVl2n8oqA1SxXehVdW-1">
                    <mxGeometry width="160" relative="1" as="geometry">
                        <mxPoint x="108" y="126" as="sourcePoint"/>
                        <mxPoint x="158" y="83" as="targetPoint"/>
                    </mxGeometry>
                </mxCell>
                <mxCell id="SYxVl2n8oqA1SxXehVdW-12" value="" style="endArrow=block;dashed=1;endFill=0;endSize=12;html=1;strokeColor=#FFFF66;fontSize=12;strokeWidth=2;" edge="1" parent="SYxVl2n8oqA1SxXehVdW-1">
                    <mxGeometry width="160" relative="1" as="geometry">
                        <mxPoint x="326" y="129" as="sourcePoint"/>
                        <mxPoint x="376" y="86" as="targetPoint"/>
                    </mxGeometry>
                </mxCell>
                <mxCell id="SYxVl2n8oqA1SxXehVdW-13" value="" style="endArrow=block;dashed=1;endFill=0;endSize=12;html=1;strokeColor=#FFFF66;fontSize=12;strokeWidth=2;" edge="1" parent="SYxVl2n8oqA1SxXehVdW-1">
                    <mxGeometry width="160" relative="1" as="geometry">
                        <mxPoint x="222" y="129" as="sourcePoint"/>
                        <mxPoint x="188" y="83" as="targetPoint"/>
                    </mxGeometry>
                </mxCell>
                <mxCell id="SYxVl2n8oqA1SxXehVdW-14" value="" style="endArrow=block;dashed=1;endFill=0;endSize=12;html=1;strokeColor=#FFFF66;fontSize=12;strokeWidth=2;exitX=0.518;exitY=-0.052;exitDx=0;exitDy=0;exitPerimeter=0;" edge="1" parent="SYxVl2n8oqA1SxXehVdW-1" source="SYxVl2n8oqA1SxXehVdW-6">
                    <mxGeometry width="160" relative="1" as="geometry">
                        <mxPoint x="444" y="132" as="sourcePoint"/>
                        <mxPoint x="410" y="85" as="targetPoint"/>
                    </mxGeometry>
                </mxCell>
                <mxCell id="SYxVl2n8oqA1SxXehVdW-15" value="" style="endArrow=block;dashed=1;endFill=0;endSize=12;html=1;strokeColor=#33FF33;fontSize=12;strokeWidth=2;" edge="1" parent="SYxVl2n8oqA1SxXehVdW-1">
                    <mxGeometry width="160" relative="1" as="geometry">
                        <mxPoint x="354" y="259" as="sourcePoint"/>
                        <mxPoint x="298" y="296" as="targetPoint"/>
                    </mxGeometry>
                </mxCell>
                <mxCell id="SYxVl2n8oqA1SxXehVdW-16" value="" style="endArrow=block;dashed=1;endFill=0;endSize=12;html=1;strokeColor=#FFFF66;fontSize=12;strokeWidth=2;" edge="1" parent="SYxVl2n8oqA1SxXehVdW-1">
                    <mxGeometry width="160" relative="1" as="geometry">
                        <mxPoint x="202" y="258" as="sourcePoint"/>
                        <mxPoint x="255" y="298" as="targetPoint"/>
                    </mxGeometry>
                </mxCell>
                <mxCell id="SYxVl2n8oqA1SxXehVdW-17" value="" style="endArrow=open;dashed=1;endFill=0;endSize=12;html=1;strokeColor=#FFFF66;fontSize=12;strokeWidth=2;" edge="1" parent="SYxVl2n8oqA1SxXehVdW-1">
                    <mxGeometry width="160" relative="1" as="geometry">
                        <mxPoint x="171" y="211" as="sourcePoint"/>
                        <mxPoint x="116" y="173" as="targetPoint"/>
                    </mxGeometry>
                </mxCell>
                <mxCell id="SYxVl2n8oqA1SxXehVdW-18" value="" style="endArrow=open;dashed=1;endFill=0;endSize=12;html=1;strokeColor=#FFFF66;fontSize=12;strokeWidth=2;" edge="1" parent="SYxVl2n8oqA1SxXehVdW-1">
                    <mxGeometry width="160" relative="1" as="geometry">
                        <mxPoint x="198" y="212" as="sourcePoint"/>
                        <mxPoint x="323" y="173" as="targetPoint"/>
                    </mxGeometry>
                </mxCell>
                <mxCell id="SYxVl2n8oqA1SxXehVdW-19" value="" style="endArrow=open;dashed=1;endFill=0;endSize=12;html=1;strokeColor=#33FF33;fontSize=12;strokeWidth=2;" edge="1" parent="SYxVl2n8oqA1SxXehVdW-1">
                    <mxGeometry width="160" relative="1" as="geometry">
                        <mxPoint x="371" y="212" as="sourcePoint"/>
                        <mxPoint x="436" y="178" as="targetPoint"/>
                    </mxGeometry>
                </mxCell>
                <mxCell id="SYxVl2n8oqA1SxXehVdW-20" value="" style="endArrow=open;dashed=1;endFill=0;endSize=12;html=1;strokeColor=#33FF33;fontSize=12;strokeWidth=2;" edge="1" parent="SYxVl2n8oqA1SxXehVdW-1">
                    <mxGeometry width="160" relative="1" as="geometry">
                        <mxPoint x="358" y="215" as="sourcePoint"/>
                        <mxPoint x="223" y="170" as="targetPoint"/>
                    </mxGeometry>
                </mxCell>
                <mxCell id="SYxVl2n8oqA1SxXehVdW-21" value="实现" style="text;html=1;strokeColor=none;fillColor=none;align=center;verticalAlign=middle;whiteSpace=wrap;rounded=0;fontSize=12;" vertex="1" parent="SYxVl2n8oqA1SxXehVdW-1">
                    <mxGeometry x="89.5" y="94" width="40" height="20" as="geometry"/>
                </mxCell>
                <mxCell id="SYxVl2n8oqA1SxXehVdW-22" value="实现" style="text;html=1;strokeColor=none;fillColor=none;align=center;verticalAlign=middle;whiteSpace=wrap;rounded=0;fontSize=12;" vertex="1" parent="SYxVl2n8oqA1SxXehVdW-1">
                    <mxGeometry x="209" y="94" width="40" height="20" as="geometry"/>
                </mxCell>
                <mxCell id="SYxVl2n8oqA1SxXehVdW-23" value="实现" style="text;html=1;strokeColor=none;fillColor=none;align=center;verticalAlign=middle;whiteSpace=wrap;rounded=0;fontSize=12;" vertex="1" parent="SYxVl2n8oqA1SxXehVdW-1">
                    <mxGeometry x="299" y="98" width="40" height="20" as="geometry"/>
                </mxCell>
                <mxCell id="SYxVl2n8oqA1SxXehVdW-24" value="实现" style="text;html=1;strokeColor=none;fillColor=none;align=center;verticalAlign=middle;whiteSpace=wrap;rounded=0;fontSize=12;" vertex="1" parent="SYxVl2n8oqA1SxXehVdW-1">
                    <mxGeometry x="436" y="98" width="40" height="20" as="geometry"/>
                </mxCell>
                <mxCell id="SYxVl2n8oqA1SxXehVdW-25" value="依赖 /使用" style="text;html=1;strokeColor=none;fillColor=none;align=center;verticalAlign=middle;whiteSpace=wrap;rounded=0;fontSize=12;" vertex="1" parent="SYxVl2n8oqA1SxXehVdW-1">
                    <mxGeometry x="79.5" y="191" width="60" height="20" as="geometry"/>
                </mxCell>
                <mxCell id="SYxVl2n8oqA1SxXehVdW-26" value="依赖 /使用" style="text;html=1;strokeColor=none;fillColor=none;align=center;verticalAlign=middle;whiteSpace=wrap;rounded=0;fontSize=12;" vertex="1" parent="SYxVl2n8oqA1SxXehVdW-1">
                    <mxGeometry x="239" y="197" width="60" height="20" as="geometry"/>
                </mxCell>
                <mxCell id="SYxVl2n8oqA1SxXehVdW-27" value="依赖 /使用" style="text;html=1;strokeColor=none;fillColor=none;align=center;verticalAlign=middle;whiteSpace=wrap;rounded=0;fontSize=12;" vertex="1" parent="SYxVl2n8oqA1SxXehVdW-1">
                    <mxGeometry x="405" y="197" width="60" height="20" as="geometry"/>
                </mxCell>
                <mxCell id="SYxVl2n8oqA1SxXehVdW-28" value="依赖 /使用" style="text;html=1;strokeColor=none;fillColor=none;align=center;verticalAlign=middle;whiteSpace=wrap;rounded=0;fontSize=12;" vertex="1" parent="SYxVl2n8oqA1SxXehVdW-1">
                    <mxGeometry x="322" y="185" width="60" height="20" as="geometry"/>
                </mxCell>
                <mxCell id="SYxVl2n8oqA1SxXehVdW-29" value="实现" style="text;html=1;strokeColor=none;fillColor=none;align=center;verticalAlign=middle;whiteSpace=wrap;rounded=0;fontSize=12;" vertex="1" parent="SYxVl2n8oqA1SxXehVdW-1">
                    <mxGeometry x="184" y="269" width="40" height="20" as="geometry"/>
                </mxCell>
                <mxCell id="SYxVl2n8oqA1SxXehVdW-30" value="实现" style="text;html=1;strokeColor=none;fillColor=none;align=center;verticalAlign=middle;whiteSpace=wrap;rounded=0;fontSize=12;" vertex="1" parent="SYxVl2n8oqA1SxXehVdW-1">
                    <mxGeometry x="332" y="274" width="40" height="20" as="geometry"/>
                </mxCell>
            </root>
        </mxGraphModel>
    </diagram>
    <diagram name="时序图" id="07NrV54Mv4kfsWD-Ff86">
        <mxGraphModel dx="798" dy="480" grid="0" gridSize="10" guides="1" tooltips="1" connect="1" arrows="1" fold="1" page="1" pageScale="1" pageWidth="827" pageHeight="1169" background="#808080" math="0" shadow="0">
            <root>
                <mxCell id="rgHZ-m6q3xeeLprkwkHn-0"/>
                <mxCell id="rgHZ-m6q3xeeLprkwkHn-1" parent="rgHZ-m6q3xeeLprkwkHn-0"/>
                <mxCell id="htUR2FbO7ey8YYquJj2r-1" value=": client" style="shape=umlLifeline;perimeter=lifelinePerimeter;whiteSpace=wrap;html=1;container=1;collapsible=0;recursiveResize=0;outlineConnect=0;fontSize=12;size=30;strokeColor=#FFFF66;strokeWidth=2;" vertex="1" parent="rgHZ-m6q3xeeLprkwkHn-1">
                    <mxGeometry x="85" y="74" width="61" height="380" as="geometry"/>
                </mxCell>
                <mxCell id="htUR2FbO7ey8YYquJj2r-14" value="" style="html=1;points=[];perimeter=orthogonalPerimeter;strokeColor=#FFFF66;strokeWidth=2;fontSize=12;fillColor=#999999;" vertex="1" parent="htUR2FbO7ey8YYquJj2r-1">
                    <mxGeometry x="22" y="72" width="10" height="256" as="geometry"/>
                </mxCell>
                <mxCell id="htUR2FbO7ey8YYquJj2r-3" value=": XiaoMi Factory" style="shape=umlLifeline;perimeter=lifelinePerimeter;whiteSpace=wrap;html=1;container=1;collapsible=0;recursiveResize=0;outlineConnect=0;fontSize=12;size=30;strokeColor=#FFFF66;strokeWidth=2;" vertex="1" parent="rgHZ-m6q3xeeLprkwkHn-1">
                    <mxGeometry x="215" y="77" width="102" height="392" as="geometry"/>
                </mxCell>
                <mxCell id="htUR2FbO7ey8YYquJj2r-19" value="" style="html=1;points=[];perimeter=orthogonalPerimeter;strokeColor=#FFFF66;strokeWidth=2;fontSize=12;fillColor=#999999;" vertex="1" parent="htUR2FbO7ey8YYquJj2r-3">
                    <mxGeometry x="46" y="66.5" width="10" height="52" as="geometry"/>
                </mxCell>
                <mxCell id="htUR2FbO7ey8YYquJj2r-24" value="" style="html=1;points=[];perimeter=orthogonalPerimeter;strokeColor=#FFFF66;strokeWidth=2;fontSize=12;fillColor=#999999;" vertex="1" parent="htUR2FbO7ey8YYquJj2r-3">
                    <mxGeometry x="46" y="203" width="10" height="49" as="geometry"/>
                </mxCell>
                <mxCell id="htUR2FbO7ey8YYquJj2r-4" value=": XiaoMi Phone" style="shape=umlLifeline;perimeter=lifelinePerimeter;whiteSpace=wrap;html=1;container=1;collapsible=0;recursiveResize=0;outlineConnect=0;fontSize=12;size=30;strokeColor=#FFFF66;strokeWidth=2;" vertex="1" parent="rgHZ-m6q3xeeLprkwkHn-1">
                    <mxGeometry x="388" y="175" width="102" height="265" as="geometry"/>
                </mxCell>
                <mxCell id="htUR2FbO7ey8YYquJj2r-20" value="" style="html=1;points=[];perimeter=orthogonalPerimeter;strokeColor=#FFFF66;strokeWidth=2;fontSize=12;fillColor=#999999;" vertex="1" parent="htUR2FbO7ey8YYquJj2r-4">
                    <mxGeometry x="46" y="58" width="10" height="17" as="geometry"/>
                </mxCell>
                <mxCell id="htUR2FbO7ey8YYquJj2r-5" value=": XiaoMi Computer" style="shape=umlLifeline;perimeter=lifelinePerimeter;whiteSpace=wrap;html=1;container=1;collapsible=0;recursiveResize=0;outlineConnect=0;fontSize=12;size=30;strokeColor=#FFFF66;strokeWidth=2;" vertex="1" parent="rgHZ-m6q3xeeLprkwkHn-1">
                    <mxGeometry x="527" y="299" width="112" height="106" as="geometry"/>
                </mxCell>
                <mxCell id="htUR2FbO7ey8YYquJj2r-31" value="" style="html=1;points=[];perimeter=orthogonalPerimeter;strokeColor=#FFFF66;strokeWidth=2;fontSize=12;fillColor=#999999;" vertex="1" parent="htUR2FbO7ey8YYquJj2r-5">
                    <mxGeometry x="51" y="60" width="10" height="17" as="geometry"/>
                </mxCell>
                <mxCell id="htUR2FbO7ey8YYquJj2r-8" value="Create Factory(): &#10;              Factory " style="text;strokeColor=none;fillColor=none;align=left;verticalAlign=top;spacingLeft=4;spacingRight=4;overflow=hidden;rotatable=0;points=[[0,0.5],[1,0.5]];portConstraint=eastwest;fontSize=12;" vertex="1" parent="rgHZ-m6q3xeeLprkwkHn-1">
                    <mxGeometry x="129" y="120" width="138" height="34" as="geometry"/>
                </mxCell>
                <mxCell id="htUR2FbO7ey8YYquJj2r-10" value="create Phone(): &#10;            Phone " style="text;strokeColor=none;fillColor=none;align=left;verticalAlign=top;spacingLeft=4;spacingRight=4;overflow=hidden;rotatable=0;points=[[0,0.5],[1,0.5]];portConstraint=eastwest;fontSize=12;" vertex="1" parent="rgHZ-m6q3xeeLprkwkHn-1">
                    <mxGeometry x="280" y="146" width="134" height="29" as="geometry"/>
                </mxCell>
                <mxCell id="htUR2FbO7ey8YYquJj2r-11" value="" style="endArrow=open;endFill=0;endSize=12;html=1;strokeColor=#33FF33;strokeWidth=2;fontSize=12;dashed=1;" edge="1" parent="rgHZ-m6q3xeeLprkwkHn-1">
                    <mxGeometry width="160" relative="1" as="geometry">
                        <mxPoint x="273" y="183" as="sourcePoint"/>
                        <mxPoint x="388" y="183" as="targetPoint"/>
                    </mxGeometry>
                </mxCell>
                <mxCell id="htUR2FbO7ey8YYquJj2r-12" value="Create Computer() :&#10;                    Computer " style="text;strokeColor=none;fillColor=none;align=left;verticalAlign=top;spacingLeft=4;spacingRight=4;overflow=hidden;rotatable=0;points=[[0,0.5],[1,0.5]];portConstraint=eastwest;fontSize=12;" vertex="1" parent="rgHZ-m6q3xeeLprkwkHn-1">
                    <mxGeometry x="304" y="275" width="134" height="35" as="geometry"/>
                </mxCell>
                <mxCell id="htUR2FbO7ey8YYquJj2r-6" value="" style="endArrow=block;endFill=1;endSize=12;html=1;strokeColor=#33FF33;strokeWidth=2;fontSize=12;" edge="1" parent="rgHZ-m6q3xeeLprkwkHn-1">
                    <mxGeometry width="160" relative="1" as="geometry">
                        <mxPoint x="125" y="159" as="sourcePoint"/>
                        <mxPoint x="260" y="159" as="targetPoint"/>
                        <Array as="points"/>
                    </mxGeometry>
                </mxCell>
                <mxCell id="htUR2FbO7ey8YYquJj2r-15" value="1.0" style="text;strokeColor=none;fillColor=none;align=left;verticalAlign=top;spacingLeft=4;spacingRight=4;overflow=hidden;rotatable=0;points=[[0,0.5],[1,0.5]];portConstraint=eastwest;fontSize=12;" vertex="1" parent="rgHZ-m6q3xeeLprkwkHn-1">
                    <mxGeometry x="164" y="158" width="30" height="23" as="geometry"/>
                </mxCell>
                <mxCell id="htUR2FbO7ey8YYquJj2r-16" value="1.1" style="text;strokeColor=none;fillColor=none;align=left;verticalAlign=top;spacingLeft=4;spacingRight=4;overflow=hidden;rotatable=0;points=[[0,0.5],[1,0.5]];portConstraint=eastwest;fontSize=12;" vertex="1" parent="rgHZ-m6q3xeeLprkwkHn-1">
                    <mxGeometry x="309" y="183" width="30" height="23" as="geometry"/>
                </mxCell>
                <mxCell id="htUR2FbO7ey8YYquJj2r-21" value="" style="endArrow=block;endFill=1;endSize=12;html=1;strokeColor=#33FF33;strokeWidth=2;fontSize=12;" edge="1" parent="rgHZ-m6q3xeeLprkwkHn-1" target="htUR2FbO7ey8YYquJj2r-4">
                    <mxGeometry width="160" relative="1" as="geometry">
                        <mxPoint x="124" y="241" as="sourcePoint"/>
                        <mxPoint x="259" y="241" as="targetPoint"/>
                        <Array as="points"/>
                    </mxGeometry>
                </mxCell>
                <mxCell id="htUR2FbO7ey8YYquJj2r-22" value="调用方法/功能 " style="text;strokeColor=none;fillColor=none;align=left;verticalAlign=top;spacingLeft=4;spacingRight=4;overflow=hidden;rotatable=0;points=[[0,0.5],[1,0.5]];portConstraint=eastwest;fontSize=12;" vertex="1" parent="rgHZ-m6q3xeeLprkwkHn-1">
                    <mxGeometry x="137" y="214" width="134" height="30" as="geometry"/>
                </mxCell>
                <mxCell id="htUR2FbO7ey8YYquJj2r-23" value="1.4" style="text;strokeColor=none;fillColor=none;align=left;verticalAlign=top;spacingLeft=4;spacingRight=4;overflow=hidden;rotatable=0;points=[[0,0.5],[1,0.5]];portConstraint=eastwest;fontSize=12;" vertex="1" parent="rgHZ-m6q3xeeLprkwkHn-1">
                    <mxGeometry x="169" y="241" width="30" height="23" as="geometry"/>
                </mxCell>
                <mxCell id="htUR2FbO7ey8YYquJj2r-25" value="Create Factory(): &#10;              Factory " style="text;strokeColor=none;fillColor=none;align=left;verticalAlign=top;spacingLeft=4;spacingRight=4;overflow=hidden;rotatable=0;points=[[0,0.5],[1,0.5]];portConstraint=eastwest;fontSize=12;" vertex="1" parent="rgHZ-m6q3xeeLprkwkHn-1">
                    <mxGeometry x="129" y="264" width="138" height="34" as="geometry"/>
                </mxCell>
                <mxCell id="htUR2FbO7ey8YYquJj2r-26" value="1.2" style="text;strokeColor=none;fillColor=none;align=left;verticalAlign=top;spacingLeft=4;spacingRight=4;overflow=hidden;rotatable=0;points=[[0,0.5],[1,0.5]];portConstraint=eastwest;fontSize=12;" vertex="1" parent="rgHZ-m6q3xeeLprkwkHn-1">
                    <mxGeometry x="164" y="301" width="30" height="23" as="geometry"/>
                </mxCell>
                <mxCell id="htUR2FbO7ey8YYquJj2r-27" value="" style="endArrow=block;endFill=1;endSize=12;html=1;strokeColor=#33FF33;strokeWidth=2;fontSize=12;" edge="1" parent="rgHZ-m6q3xeeLprkwkHn-1">
                    <mxGeometry width="160" relative="1" as="geometry">
                        <mxPoint x="122" y="303" as="sourcePoint"/>
                        <mxPoint x="257" y="303" as="targetPoint"/>
                        <Array as="points"/>
                    </mxGeometry>
                </mxCell>
                <mxCell id="htUR2FbO7ey8YYquJj2r-28" value="" style="endArrow=open;endFill=0;endSize=12;html=1;strokeColor=#33FF33;strokeWidth=2;fontSize=12;dashed=1;" edge="1" parent="rgHZ-m6q3xeeLprkwkHn-1">
                    <mxGeometry width="160" relative="1" as="geometry">
                        <mxPoint x="276" y="316.16" as="sourcePoint"/>
                        <mxPoint x="527" y="316" as="targetPoint"/>
                        <Array as="points"/>
                    </mxGeometry>
                </mxCell>
                <mxCell id="htUR2FbO7ey8YYquJj2r-29" value="1.3" style="text;strokeColor=none;fillColor=none;align=left;verticalAlign=top;spacingLeft=4;spacingRight=4;overflow=hidden;rotatable=0;points=[[0,0.5],[1,0.5]];portConstraint=eastwest;fontSize=12;" vertex="1" parent="rgHZ-m6q3xeeLprkwkHn-1">
                    <mxGeometry x="356" y="324" width="30" height="23" as="geometry"/>
                </mxCell>
                <mxCell id="htUR2FbO7ey8YYquJj2r-33" value="调用方法/功能 " style="text;strokeColor=none;fillColor=none;align=left;verticalAlign=top;spacingLeft=4;spacingRight=4;overflow=hidden;rotatable=0;points=[[0,0.5],[1,0.5]];portConstraint=eastwest;fontSize=12;" vertex="1" parent="rgHZ-m6q3xeeLprkwkHn-1">
                    <mxGeometry x="143" y="343" width="134" height="29" as="geometry"/>
                </mxCell>
                <mxCell id="htUR2FbO7ey8YYquJj2r-34" value="1.5" style="text;strokeColor=none;fillColor=none;align=left;verticalAlign=top;spacingLeft=4;spacingRight=4;overflow=hidden;rotatable=0;points=[[0,0.5],[1,0.5]];portConstraint=eastwest;fontSize=12;" vertex="1" parent="rgHZ-m6q3xeeLprkwkHn-1">
                    <mxGeometry x="169" y="366" width="30" height="23" as="geometry"/>
                </mxCell>
                <mxCell id="htUR2FbO7ey8YYquJj2r-35" value="" style="shape=umlDestroy;whiteSpace=wrap;html=1;strokeWidth=3;fillColor=#999999;fontSize=12;" vertex="1" parent="rgHZ-m6q3xeeLprkwkHn-1">
                    <mxGeometry x="572" y="420" width="22" height="22" as="geometry"/>
                </mxCell>
                <mxCell id="htUR2FbO7ey8YYquJj2r-36" value="" style="endArrow=block;endFill=1;endSize=12;html=1;strokeColor=#33FF33;strokeWidth=2;fontSize=12;" edge="1" parent="rgHZ-m6q3xeeLprkwkHn-1" target="htUR2FbO7ey8YYquJj2r-5">
                    <mxGeometry width="160" relative="1" as="geometry">
                        <mxPoint x="123" y="366.6600000000001" as="sourcePoint"/>
                        <mxPoint x="374" y="366.5" as="targetPoint"/>
                        <Array as="points"/>
                    </mxGeometry>
                </mxCell>
            </root>
        </mxGraphModel>
    </diagram>
</mxfile>